<svg xmlns="http://www.w3.org/2000/svg" width="1000" height="1000" viewBox="0 0 1000 1000" version="1.1"><path d="M 635 276 C 635 276.550, 634.325 277, 633.500 277 C 632.675 277, 632 277.420, 632 277.933 C 632 278.446, 630.987 279.181, 629.750 279.567 C 628.513 279.954, 627.128 280.771, 626.674 281.385 C 626.078 282.189, 625.706 282.151, 625.341 281.250 C 624.475 279.116, 623 279.875, 623 282.455 C 623 283.805, 621.875 286.034, 620.500 287.409 C 619.125 288.784, 618 290.380, 618 290.955 C 618 291.530, 617.550 292, 617 292 C 616.450 292, 616 292.914, 616 294.031 C 616 295.149, 615.325 296.322, 614.500 296.638 C 613.675 296.955, 613 297.862, 613 298.655 C 613 299.447, 611.875 301.138, 610.500 302.412 C 609.125 303.687, 608 305.465, 608 306.365 C 608 307.264, 607.599 308, 607.108 308 C 606.618 308, 605.942 309.095, 605.606 310.433 C 605.270 311.772, 604.096 313.152, 602.998 313.501 C 601.899 313.849, 601 315.004, 601 316.067 C 601 317.130, 600.599 318, 600.108 318 C 599.618 318, 598.934 319.125, 598.589 320.500 C 598.244 321.875, 597.520 323, 596.981 323 C 596.441 323, 596 323.675, 596 324.500 C 596 325.325, 595.550 326, 595 326 C 594.450 326, 594 326.914, 594 328.031 C 594 329.149, 593.325 330.322, 592.500 330.638 C 591.675 330.955, 591 332.066, 591 333.107 C 591 334.148, 590.550 335, 590 335 C 589.450 335, 589 336.125, 589 337.500 C 589 338.875, 588.599 340, 588.108 340 C 587.618 340, 586.934 341.125, 586.589 342.500 C 586.244 343.875, 585.520 345, 584.981 345 C 584.441 345, 584 345.675, 584 346.500 C 584 347.325, 583.550 348, 583 348 C 582.450 348, 582 348.868, 582 349.929 C 582 350.989, 581.325 352.532, 580.500 353.357 C 579.675 354.182, 579 355.586, 579 356.476 C 579 357.367, 577.875 359.138, 576.500 360.412 C 575.125 361.687, 574 363.465, 574 364.365 C 574 365.264, 573.550 366, 573 366 C 572.450 366, 572 366.675, 572 367.500 C 572 368.325, 571.599 369, 571.108 369 C 570.618 369, 569.934 370.125, 569.589 371.500 C 569.244 372.875, 568.520 374, 567.981 374 C 567.441 374, 567 374.675, 567 375.500 C 567 376.325, 566.550 377, 566 377 C 565.450 377, 565 377.868, 565 378.929 C 565 379.989, 564.325 381.532, 563.500 382.357 C 562.675 383.182, 562 384.339, 562 384.929 C 562 385.518, 561.550 386, 561 386 C 560.450 386, 560 386.932, 560 388.071 C 560 389.211, 559.438 390.770, 558.750 391.537 C 555.558 395.096, 555 396.052, 555 397.958 C 555 399.081, 554.599 400, 554.108 400 C 553.618 400, 552.934 401.125, 552.589 402.500 C 552.244 403.875, 551.520 405, 550.981 405 C 550.441 405, 550 405.675, 550 406.500 C 550 407.325, 549.600 408, 549.111 408 C 548.623 408, 547.927 409.575, 547.566 411.500 C 547.205 413.425, 546.480 415, 545.955 415 C 545.430 415, 545 415.675, 545 416.500 C 545 417.325, 544.550 418, 544 418 C 543.450 418, 543 418.900, 543 420 C 543 421.100, 542.599 422, 542.108 422 C 541.618 422, 540.934 423.125, 540.589 424.500 C 540.244 425.875, 539.520 427, 538.981 427 C 538.441 427, 538 427.675, 538 428.500 C 538 429.325, 537.550 430, 537 430 C 536.450 430, 536 430.914, 536 432.031 C 536 433.149, 535.325 434.322, 534.500 434.638 C 533.675 434.955, 533 436.066, 533 437.107 C 533 438.148, 532.550 439, 532 439 C 531.450 439, 531 439.675, 531 440.500 C 531 441.325, 530.559 442, 530.019 442 C 529.480 442, 528.756 443.125, 528.411 444.500 C 528.066 445.875, 527.382 447, 526.892 447 C 526.401 447, 526 448.302, 526 449.893 C 526 451.542, 525.355 453.034, 524.500 453.362 C 523.675 453.678, 523 454.851, 523 455.969 C 523 457.086, 522.550 458, 522 458 C 521.450 458, 521 458.675, 521 459.500 C 521 460.325, 520.599 461, 520.108 461 C 519.618 461, 518.934 462.125, 518.589 463.500 C 518.244 464.875, 517.520 466, 516.981 466 C 516.441 466, 516 466.960, 516 468.133 C 516 469.306, 515.002 471.131, 513.782 472.189 C 511.387 474.266, 512.483 475.952, 516.250 475.985 C 517.212 475.993, 518 476.450, 518 477 C 518 477.550, 518.675 478, 519.500 478 C 520.325 478, 521 478.441, 521 478.981 C 521 479.520, 522.125 480.244, 523.500 480.589 C 524.875 480.934, 526 481.618, 526 482.108 C 526 482.599, 526.675 483, 527.500 483 C 528.325 483, 529 483.450, 529 484 C 529 484.550, 529.900 485, 531 485 C 532.100 485, 533 485.401, 533 485.892 C 533 486.382, 534.125 487.066, 535.500 487.411 C 536.875 487.756, 538 488.480, 538 489.019 C 538 489.559, 538.482 490, 539.071 490 C 539.661 490, 540.818 490.675, 541.643 491.500 C 542.468 492.325, 544.136 493, 545.351 493 C 546.565 493, 548.207 493.900, 549 495 C 549.793 496.100, 551.467 497, 552.721 497 C 553.974 497, 555 497.391, 555 497.870 C 555 498.348, 557.123 498.979, 559.717 499.272 C 562.312 499.564, 564.599 500.298, 564.801 500.902 C 565.002 501.506, 566.254 502, 567.583 502 C 568.913 502, 570 502.387, 570 502.861 C 570 503.334, 572.360 504.001, 575.244 504.342 C 578.128 504.684, 580.641 505.422, 580.827 505.982 C 581.014 506.542, 581.804 507, 582.583 507 C 583.362 507, 584 507.450, 584 508 C 584 508.550, 585.925 509, 588.278 509 C 593.159 509, 596 511.412, 596 515.555 C 596 518.396, 586.263 529, 583.654 529 C 582.819 529, 581.856 529.877, 581.516 530.949 C 581.176 532.021, 580.044 533.169, 579 533.500 C 577.956 533.831, 576.824 534.979, 576.484 536.051 C 576.144 537.123, 575.466 538, 574.978 538 C 573.825 538, 569 542.825, 569 543.978 C 569 544.466, 568.123 545.144, 567.051 545.484 C 565.979 545.824, 564.824 546.979, 564.484 548.051 C 564.144 549.123, 562.996 550, 561.933 550 C 560.870 550, 560 550.675, 560 551.500 C 560 552.325, 559.518 553, 558.929 553 C 557.544 553, 555 555.544, 555 556.929 C 555 557.518, 554.529 558, 553.952 558 C 553.376 558, 550.697 560.138, 547.999 562.750 C 545.301 565.362, 542.510 568.002, 541.797 568.616 C 541.084 569.230, 539.838 570.692, 539.029 571.866 C 538.220 573.040, 536.983 574, 536.279 574 C 535.576 574, 535 574.675, 535 575.500 C 535 576.325, 534.278 577, 533.396 577 C 532.514 577, 529.150 579.700, 525.921 583 C 522.692 586.300, 519.795 589, 519.483 589 C 518.671 589, 516.567 590.836, 511.203 596.224 C 505.341 602.112, 505.461 601.992, 496.724 610.703 C 492.751 614.665, 488.998 618.490, 488.384 619.203 C 487.770 619.917, 486.308 621.162, 485.134 621.971 C 483.960 622.780, 483 624.024, 483 624.735 C 483 626.422, 466.422 643, 464.735 643 C 464.024 643, 462.780 643.960, 461.971 645.134 C 461.162 646.308, 459.916 647.770, 459.203 648.384 C 457.848 649.550, 449.380 657.957, 447.298 660.203 C 446.637 660.916, 445.512 662.041, 444.798 662.702 C 444.084 663.363, 442.959 664.488, 442.298 665.202 C 440.490 667.154, 438.158 669, 437.500 669 C 436.842 669, 434.509 670.846, 432.702 672.798 C 427.895 677.989, 426.806 679, 426.022 679 C 425.534 679, 424.849 679.899, 424.501 680.998 C 424.152 682.096, 422.772 683.270, 421.433 683.606 C 419.928 683.984, 419 684.939, 419 686.108 C 419 687.255, 418.299 688, 417.222 688 C 415.162 688, 412 691.337, 412 693.511 C 412 694.330, 411.255 695, 410.345 695 C 409.435 695, 406.978 696.800, 404.885 699 C 402.792 701.200, 400.601 703, 400.015 703 C 399.429 703, 396.308 705.700, 393.079 709 C 389.850 712.300, 386.711 715, 386.104 715 C 385.497 715, 385 715.420, 385 715.933 C 385 716.446, 384.100 717.151, 383 717.500 C 381.900 717.849, 381 718.812, 381 719.639 C 381 721.560, 379.017 723.542, 376.203 724.435 C 373.996 725.136, 373.121 727, 375 727 C 375.550 727, 376 726.550, 376 726 C 376 725.450, 376.450 725, 377 725 C 377.550 725, 378 725.739, 378 726.642 C 378 727.545, 379.346 729.570, 380.991 731.142 C 384.046 734.062, 386 734.786, 386 733 C 386 732.450, 386.696 732, 387.548 732 C 388.399 732, 390.138 730.875, 391.412 729.500 C 392.687 728.125, 394.034 727, 394.407 727 C 395.802 727, 403 720.276, 403 718.974 C 403 718.459, 404.125 717.756, 405.500 717.411 C 406.986 717.038, 408 716.067, 408 715.017 C 408 713.854, 409.025 713.045, 411 712.650 C 413.081 712.234, 414 711.463, 414 710.133 C 414 708.923, 414.921 707.986, 416.500 707.589 C 417.875 707.244, 419 706.559, 419 706.067 C 419 704.764, 425.768 698, 427.071 698 C 427.680 698, 431.248 694.850, 435 691 C 438.752 687.150, 442.290 684, 442.863 684 C 443.436 684, 446.064 681.762, 448.702 679.026 C 457.884 669.508, 460.647 667, 461.955 667 C 462.530 667, 463 666.518, 463 665.929 C 463 664.544, 465.544 662, 466.929 662 C 467.518 662, 468 661.546, 468 660.991 C 468 659.352, 473.580 654, 475.289 654 C 476.158 654, 477.004 652.994, 477.180 651.750 C 477.386 650.304, 478.304 649.386, 479.750 649.180 C 481.196 648.975, 482 648.171, 482 646.930 C 482 645.869, 482.675 645, 483.500 645 C 484.325 645, 485 644.580, 485 644.067 C 485 643.554, 485.877 642.856, 486.949 642.516 C 488.021 642.176, 489.169 641.044, 489.500 640 C 489.831 638.956, 490.956 637.831, 492 637.500 C 493.044 637.169, 494.169 636.044, 494.500 635 C 494.831 633.956, 495.956 632.831, 497 632.500 C 498.044 632.169, 499.176 631.021, 499.516 629.949 C 499.856 628.877, 501.004 628, 502.067 628 C 503.130 628, 504 627.325, 504 626.500 C 504 625.675, 504.450 625, 505 625 C 505.550 625, 506 624.261, 506 623.358 C 506 622.455, 507.350 620.426, 509 618.850 C 510.650 617.273, 512 615.537, 512 614.991 C 512 614.446, 512.900 614, 514 614 C 515.100 614, 516 613.518, 516 612.929 C 516 611.544, 518.544 609, 519.929 609 C 520.518 609, 521 608.518, 521 607.929 C 521 606.403, 523.222 604.382, 525.797 603.565 C 527.066 603.162, 528 602.046, 528 600.933 C 528 599.870, 528.482 599, 529.071 599 C 530.456 599, 533 596.456, 533 595.071 C 533 594.482, 533.482 594, 534.071 594 C 535.456 594, 538 591.456, 538 590.071 C 538 589.482, 538.470 589, 539.045 589 C 539.620 589, 541.216 587.875, 542.591 586.500 C 543.966 585.125, 545.542 584, 546.093 584 C 546.644 584, 549.345 581.750, 552.095 579 C 554.845 576.250, 557.539 574, 558.082 574 C 558.625 574, 562.157 570.850, 565.932 567 C 569.706 563.150, 573.467 560, 574.289 560 C 575.111 560, 576.066 558.875, 576.411 557.500 C 576.806 555.924, 577.745 555, 578.950 555 C 580.170 555, 580.976 554.187, 581.180 552.750 C 581.386 551.305, 582.304 550.386, 583.748 550.181 C 585.151 549.981, 586.226 548.947, 586.607 547.431 C 586.984 545.928, 587.939 545, 589.108 545 C 590.161 545, 591 544.303, 591 543.429 C 591 541.633, 593.335 539, 594.929 539 C 595.518 539, 596 538.518, 596 537.929 C 596 536.544, 598.544 534, 599.929 534 C 600.518 534, 601 533.325, 601 532.500 C 601 531.675, 601.696 531, 602.548 531 C 603.399 531, 605.138 529.875, 606.412 528.500 C 607.687 527.125, 609.240 526, 609.865 526 C 610.489 526, 611 525.130, 611 524.067 C 611 523.004, 611.877 521.856, 612.949 521.516 C 614.021 521.176, 615.176 520.021, 615.516 518.949 C 615.856 517.877, 616.554 517, 617.067 517 C 618.620 517, 618.113 513.155, 616.278 511.011 C 615.285 509.851, 613.324 509, 611.645 509 C 610.044 509, 608.007 508.164, 607.117 507.143 C 606.086 505.959, 603.415 505.027, 599.750 504.571 C 596.587 504.178, 594 503.438, 594 502.928 C 594 502.418, 592.875 502, 591.500 502 C 590.125 502, 589 501.592, 589 501.094 C 589 500.595, 586.750 499.878, 584 499.500 C 581.250 499.122, 579 498.405, 579 497.906 C 579 497.408, 578.325 497, 577.500 497 C 576.675 497, 576 496.550, 576 496 C 576 495.450, 574.650 495, 573 495 C 571.350 495, 570 494.570, 570 494.045 C 570 493.520, 568.313 492.777, 566.250 492.394 C 564.188 492.011, 561.825 490.930, 561 489.992 C 560.175 489.054, 558.487 487.966, 557.250 487.576 C 556.013 487.185, 555 486.446, 555 485.933 C 555 485.420, 554.490 485, 553.867 485 C 553.244 485, 551.920 484.061, 550.924 482.912 C 549.885 481.714, 547.396 480.595, 545.084 480.284 C 542.387 479.923, 540.864 479.145, 540.479 477.935 C 540.164 476.941, 538.914 475.986, 537.703 475.813 C 535.320 475.474, 534.652 468.949, 536.922 468.193 C 537.515 467.995, 538 467.019, 538 466.024 C 538 465.028, 538.675 463.955, 539.500 463.638 C 540.325 463.322, 541 462.149, 541 461.031 C 541 459.914, 541.450 459, 542 459 C 542.550 459, 543 458.325, 543 457.500 C 543 456.675, 543.450 456, 544 456 C 544.550 456, 545 455.325, 545 454.500 C 545 453.675, 545.450 453, 546 453 C 546.550 453, 547 452.132, 547 451.071 C 547 450.011, 547.675 448.468, 548.500 447.643 C 549.325 446.818, 550 445.259, 550 444.178 C 550 443.098, 550.675 441.955, 551.500 441.638 C 552.325 441.322, 553 440.149, 553 439.031 C 553 437.914, 553.450 437, 554 437 C 554.550 437, 555 436.325, 555 435.500 C 555 434.675, 555.450 434, 556 434 C 556.550 434, 557 433.163, 557 432.140 C 557 431.117, 558.125 429.435, 559.500 428.403 C 560.877 427.369, 562 425.509, 562 424.263 C 562 423.018, 562.441 422, 562.981 422 C 563.520 422, 564.244 420.875, 564.589 419.500 C 564.934 418.125, 565.618 417, 566.108 417 C 566.599 417, 567 416.100, 567 415 C 567 413.900, 567.430 413, 567.955 413 C 568.480 413, 569.205 411.425, 569.566 409.500 C 569.927 407.575, 570.623 406, 571.111 406 C 571.600 406, 572 405.325, 572 404.500 C 572 403.675, 572.450 403, 573 403 C 573.550 403, 574 402.325, 574 401.500 C 574 400.675, 574.450 400, 575 400 C 575.550 400, 576 399.086, 576 397.969 C 576 396.851, 576.675 395.678, 577.500 395.362 C 578.325 395.045, 579 393.934, 579 392.893 C 579 391.852, 579.401 391, 579.892 391 C 580.382 391, 581.066 389.875, 581.411 388.500 C 581.756 387.125, 582.480 386, 583.019 386 C 583.559 386, 584 384.875, 584 383.500 C 584 382.125, 584.450 381, 585 381 C 585.550 381, 586 380.086, 586 378.969 C 586 377.851, 586.675 376.678, 587.500 376.362 C 588.325 376.045, 589 374.934, 589 373.893 C 589 372.852, 589.450 372, 590 372 C 590.550 372, 591 371.325, 591 370.500 C 591 369.675, 591.441 369, 591.981 369 C 592.520 369, 593.244 367.875, 593.589 366.500 C 593.934 365.125, 594.618 364, 595.108 364 C 595.599 364, 596 363.304, 596 362.452 C 596 361.601, 597.125 359.862, 598.500 358.588 C 599.875 357.313, 601 355.409, 601 354.356 C 601 353.303, 601.898 351.794, 602.995 351.003 C 604.093 350.212, 605.268 348.088, 605.607 346.282 C 605.945 344.477, 606.623 343, 607.111 343 C 607.600 343, 608 342.518, 608 341.929 C 608 341.339, 608.675 340.182, 609.500 339.357 C 610.325 338.532, 611 336.764, 611 335.429 C 611 334.093, 611.450 333, 612 333 C 612.550 333, 613 332.325, 613 331.500 C 613 330.675, 613.450 330, 614 330 C 614.550 330, 615 329.086, 615 327.969 C 615 326.851, 615.675 325.678, 616.500 325.362 C 617.325 325.045, 618 323.964, 618 322.960 C 618 321.956, 618.846 320.866, 619.881 320.538 C 620.946 320.200, 622.022 318.641, 622.361 316.945 C 622.691 315.297, 624.094 312.815, 625.480 311.429 C 626.866 310.043, 628 308.255, 628 307.455 C 628 306.655, 628.450 306, 629 306 C 629.550 306, 630 305.304, 630 304.452 C 630 303.601, 631.125 301.862, 632.500 300.588 C 633.875 299.313, 635 297.859, 635 297.356 C 635 296.853, 635.883 295.805, 636.963 295.027 C 638.043 294.248, 639.228 292.237, 639.597 290.557 C 639.966 288.877, 641.027 286.826, 641.954 286.001 C 645.614 282.741, 644.394 277, 640.042 277 C 639.469 277, 639 276.550, 639 276 C 639 275.450, 638.100 275, 637 275 C 635.900 275, 635 275.450, 635 276 M 560.463 316.311 C 556.127 320.969, 556.081 322.828, 560.409 318.500 C 561.784 317.125, 563.380 316, 563.955 316 C 564.530 316, 565 315.550, 565 315 C 565 313.313, 562.610 314.004, 560.463 316.311 M 552.516 322.949 C 552.176 324.021, 550.946 325.200, 549.784 325.569 C 547.436 326.314, 542.345 331, 543.883 331 C 544.419 331, 545.532 330.325, 546.357 329.500 C 547.182 328.675, 548.149 328, 548.505 328 C 549.308 328, 555 322.371, 555 321.577 C 555 320.137, 553.071 321.202, 552.516 322.949 M 536 336 C 536 336.550, 535.394 337, 534.653 337 C 532.867 337, 528.499 340.832, 529.333 341.667 C 529.693 342.026, 530.778 341.413, 531.744 340.303 C 532.710 339.194, 534.513 337.966, 535.750 337.576 C 537.993 336.867, 538.899 335, 537 335 C 536.450 335, 536 335.450, 536 336 M 488.806 372.800 C 486.775 374.835, 484.412 377.080, 483.556 377.789 C 482.700 378.499, 482 379.532, 482 380.085 C 482 380.638, 483.145 379.945, 484.545 378.545 C 485.945 377.145, 487.490 376, 487.978 376 C 488.466 376, 489.144 375.123, 489.484 374.051 C 489.824 372.979, 490.979 371.824, 492.051 371.484 C 493.123 371.144, 494 370.446, 494 369.933 C 494 368.248, 492.554 369.046, 488.806 372.800 M 476.500 383.536 C 475.400 384.880, 474.130 385.984, 473.679 385.990 C 473.227 385.995, 472.123 386.734, 471.225 387.632 C 469.716 389.141, 469.770 389.208, 471.941 388.519 C 474.044 387.851, 480 382.638, 480 381.466 C 480 380.313, 478.330 381.301, 476.500 383.536 M 447.306 404.436 C 446.649 405.184, 445.524 406.005, 444.806 406.261 C 444.088 406.517, 443.816 407.066, 444.202 407.482 C 444.589 407.898, 445.633 407.510, 446.524 406.619 C 447.414 405.729, 448.786 405, 449.571 405 C 450.357 405, 451 404.550, 451 404 C 451 402.566, 448.710 402.836, 447.306 404.436 M 441 409 C 441 409.550, 440.100 410, 439 410 C 437.900 410, 437 410.450, 437 411 C 437 412.485, 439.933 412.210, 441.571 410.571 C 443.247 408.896, 443.396 408, 442 408 C 441.450 408, 441 408.450, 441 409 M 405.463 437.311 C 403.050 439.903, 401.678 442, 402.396 442 C 403.309 442, 408 436.940, 408 435.955 C 408 434.677, 407.829 434.768, 405.463 437.311 M 394.250 446.665 C 391.913 449.155, 390 451.659, 390 452.229 C 390 452.799, 389.028 454.109, 387.840 455.139 C 386.651 456.170, 385.974 457.307, 386.333 457.667 C 387.057 458.390, 391 454.243, 391 452.758 C 391 452.243, 393.025 449.854, 395.500 447.448 C 397.975 445.043, 400 442.833, 400 442.537 C 400 441.177, 398.164 442.495, 394.250 446.665 M 383.303 461.384 C 382.094 462.548, 380.519 464.041, 379.803 464.702 C 377.052 467.240, 375.827 469.158, 376.536 469.816 C 376.942 470.192, 377.483 469.912, 377.739 469.193 C 378.344 467.494, 382.843 463, 383.938 463 C 384.749 463, 386.342 459.954, 385.774 459.491 C 385.623 459.368, 384.511 460.220, 383.303 461.384 M 382.225 481.368 C 383.123 482.266, 384.240 483, 384.708 483 C 385.176 483, 386.206 483.898, 386.997 484.995 C 387.788 486.093, 389.897 487.265, 391.683 487.600 C 393.638 487.967, 395.171 488.965, 395.533 490.105 C 396.056 491.752, 398 492.861, 398 491.511 C 398 490.166, 394.335 487, 392.778 487 C 391.800 487, 391 486.550, 391 486 C 391 485.450, 390.490 485, 389.867 485 C 389.244 485, 388.007 484.164, 387.117 483.143 C 386.228 482.122, 384.396 480.937, 383.047 480.511 C 380.778 479.794, 380.716 479.859, 382.225 481.368 M 427 515 C 427 515.550, 427.914 516, 429.031 516 C 430.149 516, 431.322 516.675, 431.638 517.500 C 431.955 518.325, 433.018 519, 434 519 C 434.982 519, 436.045 519.675, 436.362 520.500 C 436.678 521.325, 437.964 521.939, 439.219 521.864 C 441.494 521.728, 441.495 521.727, 439.297 521.300 C 438.086 521.066, 436.818 520.002, 436.480 518.937 C 436.142 517.871, 434.981 517, 433.901 517 C 432.821 517, 431.678 516.325, 431.362 515.500 C 430.725 513.840, 427 513.413, 427 515 M 443 525 C 443 525.550, 443.675 526, 444.500 526 C 445.325 526, 446 526.450, 446 527 C 446 527.550, 446.675 528, 447.500 528 C 448.325 528, 449 527.550, 449 527 C 449 526.450, 448.325 526, 447.500 526 C 446.675 526, 446 525.550, 446 525 C 446 524.450, 445.325 524, 444.500 524 C 443.675 524, 443 524.450, 443 525 M 424.411 591.500 C 424.066 592.875, 423.382 594, 422.892 594 C 422.401 594, 422 594.638, 422 595.417 C 422 596.196, 421.438 597.034, 420.750 597.280 C 420.063 597.525, 419.816 598.066, 420.202 598.482 C 421.211 599.568, 423.788 596.693, 424.559 593.621 C 424.921 592.179, 425.618 591, 426.108 591 C 426.599 591, 427 590.550, 427 590 C 427 587.944, 425.014 589.095, 424.411 591.500 M 405 631.071 C 405 631.661, 404.325 632.818, 403.500 633.643 C 402.675 634.468, 402.036 635.898, 402.079 636.821 C 402.144 638.201, 402.261 638.232, 402.735 637 C 403.053 636.175, 404.143 634.772, 405.157 633.883 C 407.150 632.134, 407.614 630, 406 630 C 405.450 630, 405 630.482, 405 631.071 M 385 673.833 C 385 675.025, 384.550 676, 384 676 C 383.450 676, 383 676.675, 383 677.500 C 383 678.325, 382.550 679, 382 679 C 381.450 679, 381 679.900, 381 681 C 381 682.100, 381.450 683, 382 683 C 382.550 683, 383 682.100, 383 681 C 383 679.900, 383.414 679, 383.921 679 C 385.005 679, 386.463 673.130, 385.595 672.262 C 385.268 671.934, 385 672.642, 385 673.833 M 373 699.333 C 373 700.250, 372.550 701, 372 701 C 371.450 701, 371 701.900, 371 703 C 371 704.100, 371.394 705, 371.875 705 C 372.855 705, 374.298 698.965, 373.507 698.174 C 373.228 697.895, 373 698.417, 373 699.333" stroke="none" fill="#090909" fill-rule="evenodd"/><path d="M 615 278 C 615 278.550, 614.086 279, 612.969 279 C 611.851 279, 610.678 279.675, 610.362 280.500 C 610.045 281.325, 608.934 282, 607.893 282 C 606.852 282, 606 282.675, 606 283.500 C 606 284.325, 605.325 285, 604.500 285 C 603.675 285, 603 285.450, 603 286 C 603 286.550, 602.130 287, 601.067 287 C 600.004 287, 598.856 287.877, 598.516 288.949 C 598.176 290.021, 596.946 291.200, 595.784 291.569 C 594.621 291.938, 592.598 293.311, 591.289 294.620 C 589.980 295.929, 588.354 297, 587.675 297 C 586.997 297, 585.793 297.900, 585 299 C 584.207 300.100, 583.003 301, 582.325 301 C 581.646 301, 579.966 302.125, 578.591 303.500 C 577.216 304.875, 575.620 306, 575.045 306 C 574.470 306, 574 306.420, 574 306.933 C 574 307.446, 573.026 308.174, 571.835 308.552 C 569.341 309.344, 565 313.410, 565 314.955 C 565 315.530, 564.530 316, 563.955 316 C 563.380 316, 561.784 317.125, 560.409 318.500 C 559.034 319.875, 557.449 321, 556.887 321 C 556.325 321, 554.380 322.575, 552.565 324.500 C 550.749 326.425, 548.947 328, 548.560 328 C 548.174 328, 547.182 328.675, 546.357 329.500 C 545.532 330.325, 543.989 331, 542.929 331 C 541.868 331, 541 331.430, 541 331.955 C 541 333.341, 536.126 338, 534.675 338 C 533.997 338, 532.793 338.900, 532 340 C 531.207 341.100, 530.004 342, 529.327 342 C 528.649 342, 525.845 344.250, 523.095 347 C 520.345 349.750, 517.624 352, 517.048 352 C 516.471 352, 516 352.450, 516 353 C 516 353.550, 515.149 354, 514.108 354 C 512.939 354, 511.984 354.928, 511.606 356.433 C 511.270 357.772, 509.984 359.186, 508.748 359.576 C 507.511 359.967, 505.772 361.122, 504.883 362.143 C 503.993 363.164, 502.579 364, 501.740 364 C 500.901 364, 499.955 364.675, 499.638 365.500 C 499.322 366.325, 498.179 367, 497.099 367 C 496.019 367, 494.856 367.877, 494.516 368.949 C 494.176 370.021, 493.044 371.169, 492 371.500 C 490.956 371.831, 489.824 372.979, 489.484 374.051 C 489.144 375.123, 488.466 376, 487.978 376 C 487.490 376, 485.966 377.125, 484.591 378.500 C 483.216 379.875, 481.786 381, 481.414 381 C 481.041 381, 479.304 382.518, 477.555 384.373 C 475.805 386.229, 473.389 388.059, 472.187 388.441 C 470.984 388.822, 470 389.554, 470 390.067 C 470 390.580, 469.109 391, 468.019 391 C 466.740 391, 465.816 391.886, 465.411 393.500 C 465.018 395.064, 464.075 396, 462.892 396 C 461.851 396, 461 396.450, 461 397 C 461 397.550, 460.325 398, 459.500 398 C 458.675 398, 458 398.420, 458 398.933 C 458 399.446, 456.988 400.185, 455.750 400.576 C 454.512 400.966, 452.825 402.057, 452 403 C 451.175 403.943, 449.488 405.034, 448.250 405.424 C 447.012 405.815, 446 406.554, 446 407.067 C 446 407.580, 445.424 408, 444.721 408 C 444.017 408, 442.793 408.900, 442 410 C 441.207 411.100, 439.758 412, 438.779 412 C 437.801 412, 437 412.675, 437 413.500 C 437 414.325, 436.489 415, 435.865 415 C 435.240 415, 433.687 416.125, 432.412 417.500 C 431.138 418.875, 429.506 420, 428.785 420 C 428.064 420, 426.630 421.125, 425.597 422.500 C 424.565 423.875, 422.913 425, 421.927 425 C 420.941 425, 419.856 425.877, 419.516 426.949 C 419.176 428.021, 417.946 429.200, 416.784 429.569 C 414.419 430.319, 411.308 432.989, 405.343 439.389 C 404.004 440.825, 402.458 442, 401.907 442 C 401.356 442, 398.676 444.229, 395.952 446.952 C 393.229 449.676, 391 452.356, 391 452.907 C 391 453.458, 389.929 454.980, 388.620 456.289 C 387.311 457.598, 385.930 459.644, 385.552 460.835 C 385.174 462.026, 384.466 463, 383.978 463 C 383.162 463, 380.332 465.696, 377.250 469.410 C 376.563 470.238, 376 471.385, 376 471.958 C 376 472.531, 375.550 473, 375 473 C 373.231 473, 373.935 474.845, 375.949 475.484 C 377.021 475.824, 378.161 476.932, 378.483 477.946 C 378.828 479.033, 380.402 480.040, 382.317 480.400 C 384.103 480.735, 386.212 481.907, 387.003 483.005 C 387.794 484.102, 389.017 485, 389.721 485 C 390.424 485, 391 485.450, 391 486 C 391 486.550, 391.837 487, 392.860 487 C 393.883 487, 395.565 488.125, 396.597 489.500 C 397.630 490.875, 399.282 492, 400.269 492 C 401.255 492, 402.322 492.675, 402.638 493.500 C 402.955 494.325, 404.036 495, 405.040 495 C 406.044 495, 407.157 495.918, 407.513 497.041 C 407.898 498.253, 409.347 499.319, 411.080 499.666 C 412.984 500.047, 414 500.865, 414 502.017 C 414 503.054, 415.004 504.035, 416.433 504.394 C 417.772 504.730, 419.152 505.903, 419.500 507 C 419.848 508.097, 421.228 509.270, 422.567 509.606 C 424.072 509.984, 425 510.939, 425 512.108 C 425 513.528, 425.722 514, 427.893 514 C 429.542 514, 431.034 514.645, 431.362 515.500 C 431.678 516.325, 432.821 517, 433.901 517 C 434.987 517, 436.149 517.894, 436.500 519 C 436.849 520.100, 438.004 521, 439.067 521 C 440.130 521, 441 521.675, 441 522.500 C 441 523.433, 441.944 524, 443.500 524 C 444.875 524, 446 524.450, 446 525 C 446 525.550, 446.482 526, 447.071 526 C 447.661 526, 448.818 526.675, 449.643 527.500 C 450.468 528.325, 452.043 529, 453.143 529 C 455.297 529, 458 531.186, 458 532.929 C 458 533.518, 457.550 534, 457 534 C 456.450 534, 456 534.852, 456 535.893 C 456 536.934, 455.325 538.045, 454.500 538.362 C 453.675 538.678, 453 539.851, 453 540.969 C 453 542.086, 452.550 543, 452 543 C 451.450 543, 451 543.675, 451 544.500 C 451 545.325, 450.559 546, 450.019 546 C 449.480 546, 448.756 547.125, 448.411 548.500 C 448.066 549.875, 447.382 551, 446.892 551 C 446.401 551, 446 551.707, 446 552.571 C 446 553.436, 445.325 554.818, 444.500 555.643 C 443.675 556.468, 443 558.236, 443 559.571 C 443 560.907, 442.550 562, 442 562 C 441.450 562, 441 562.675, 441 563.500 C 441 564.325, 440.550 565, 440 565 C 439.450 565, 439 565.675, 439 566.500 C 439 567.325, 438.600 568, 438.111 568 C 437.623 568, 436.945 569.477, 436.607 571.282 C 436.268 573.088, 435.093 575.212, 433.995 576.003 C 432.898 576.794, 432 578.435, 432 579.649 C 432 580.864, 431.325 582.532, 430.500 583.357 C 429.675 584.182, 429 585.339, 429 585.929 C 429 586.518, 428.550 587, 428 587 C 427.450 587, 427 587.900, 427 589 C 427 590.100, 426.586 591, 426.079 591 C 425.573 591, 424.882 592.263, 424.543 593.806 C 424.204 595.349, 423.043 597.248, 421.963 598.027 C 420.883 598.805, 420 600.435, 420 601.649 C 420 602.864, 419.325 604.532, 418.500 605.357 C 417.675 606.182, 417 607.339, 417 607.929 C 417 608.518, 416.559 609, 416.019 609 C 415.480 609, 414.756 610.125, 414.411 611.500 C 414.066 612.875, 413.382 614, 412.892 614 C 412.401 614, 412 614.900, 412 616 C 412 617.100, 411.550 618, 411 618 C 410.450 618, 410 619.125, 410 620.500 C 410 621.875, 409.601 623, 409.114 623 C 408.626 623, 407.909 625.121, 407.520 627.714 C 407.119 630.387, 405.989 633.142, 404.909 634.079 C 403.861 634.988, 402.705 637.254, 402.339 639.116 C 401.974 640.977, 400.848 643.228, 399.837 644.117 C 398.827 645.007, 398 646.694, 398 647.867 C 398 649.040, 397.550 650, 397 650 C 396.450 650, 396 650.914, 396 652.031 C 396 653.149, 395.325 654.322, 394.500 654.638 C 393.645 654.966, 393 656.458, 393 658.107 C 393 659.698, 392.550 661, 392 661 C 391.450 661, 391 662.139, 391 663.531 C 391 664.924, 390.325 666.322, 389.500 666.638 C 388.675 666.955, 388 668.066, 388 669.107 C 388 670.148, 387.608 671, 387.128 671 C 386.648 671, 385.968 672.800, 385.616 675 C 385.264 677.200, 384.532 679, 383.988 679 C 383.445 679, 383 679.900, 383 681 C 383 682.100, 382.550 683, 382 683 C 381.450 683, 381 683.675, 381 684.500 C 381 685.325, 380.550 686, 380 686 C 379.450 686, 379 687.093, 379 688.429 C 379 689.764, 378.325 691.532, 377.500 692.357 C 376.675 693.182, 376 694.339, 376 694.929 C 376 695.518, 375.601 696, 375.114 696 C 374.626 696, 373.923 698.025, 373.552 700.500 C 373.026 704.011, 372.461 705, 370.984 705 C 369.615 705, 368.910 705.961, 368.440 708.466 C 368.038 710.614, 367.069 712.161, 365.895 712.533 C 364.719 712.907, 364 714.058, 364 715.567 C 364 716.905, 363.600 718, 363.111 718 C 362.623 718, 361.927 719.575, 361.566 721.500 C 361.205 723.425, 360.480 725, 359.955 725 C 358.305 725, 358.915 727.915, 361 730 C 363.017 732.017, 368 732.786, 368 731.079 C 368 730.573, 369.350 729.862, 371 729.500 C 373.017 729.057, 374 728.234, 374 726.988 C 374 725.956, 374.976 724.825, 376.203 724.435 C 379.017 723.542, 381 721.560, 381 719.639 C 381 718.812, 381.900 717.849, 383 717.500 C 384.100 717.151, 385 716.446, 385 715.933 C 385 715.420, 385.497 715, 386.104 715 C 386.711 715, 389.850 712.300, 393.079 709 C 396.308 705.700, 399.429 703, 400.015 703 C 400.601 703, 402.792 701.200, 404.885 699 C 406.978 696.800, 409.435 695, 410.345 695 C 411.255 695, 412 694.330, 412 693.511 C 412 691.337, 415.162 688, 417.222 688 C 418.299 688, 419 687.255, 419 686.108 C 419 684.939, 419.928 683.984, 421.433 683.606 C 422.772 683.270, 424.152 682.096, 424.501 680.998 C 424.849 679.899, 425.534 679, 426.022 679 C 426.806 679, 427.895 677.989, 432.702 672.798 C 434.509 670.846, 436.842 669, 437.500 669 C 438.158 669, 440.490 667.154, 442.298 665.202 C 442.959 664.488, 444.084 663.363, 444.798 662.702 C 445.512 662.041, 446.637 660.916, 447.298 660.203 C 449.380 657.957, 457.848 649.550, 459.203 648.384 C 459.916 647.770, 461.162 646.308, 461.971 645.134 C 462.780 643.960, 464.024 643, 464.735 643 C 466.422 643, 483 626.422, 483 624.735 C 483 624.024, 483.960 622.780, 485.134 621.971 C 486.308 621.162, 487.770 619.917, 488.384 619.203 C 488.998 618.490, 492.813 614.603, 496.862 610.565 C 505.738 601.715, 505.356 602.097, 511.203 596.224 C 516.567 590.836, 518.671 589, 519.483 589 C 519.795 589, 522.692 586.300, 525.921 583 C 529.150 579.700, 532.514 577, 533.396 577 C 534.278 577, 535 576.325, 535 575.500 C 535 574.675, 535.576 574, 536.279 574 C 536.983 574, 538.220 573.040, 539.029 571.866 C 539.838 570.692, 541.084 569.230, 541.797 568.616 C 542.510 568.002, 545.301 565.362, 547.999 562.750 C 550.697 560.138, 553.376 558, 553.952 558 C 554.529 558, 555 557.518, 555 556.929 C 555 555.544, 557.544 553, 558.929 553 C 559.518 553, 560 552.325, 560 551.500 C 560 550.675, 560.870 550, 561.933 550 C 562.996 550, 564.144 549.123, 564.484 548.051 C 564.824 546.979, 565.979 545.824, 567.051 545.484 C 568.123 545.144, 569 544.466, 569 543.978 C 569 542.825, 573.825 538, 574.978 538 C 575.466 538, 576.144 537.123, 576.484 536.051 C 576.824 534.979, 577.956 533.831, 579 533.500 C 580.044 533.169, 581.176 532.021, 581.516 530.949 C 581.856 529.877, 582.819 529, 583.654 529 C 586.263 529, 596 518.396, 596 515.555 C 596 511.412, 593.159 509, 588.278 509 C 585.925 509, 584 508.550, 584 508 C 584 507.450, 583.362 507, 582.583 507 C 581.804 507, 581.014 506.542, 580.827 505.982 C 580.641 505.422, 578.128 504.684, 575.244 504.342 C 572.360 504.001, 570 503.334, 570 502.861 C 570 502.387, 568.913 502, 567.583 502 C 566.254 502, 565.002 501.506, 564.801 500.902 C 564.599 500.298, 562.312 499.564, 559.717 499.272 C 557.123 498.979, 555 498.348, 555 497.870 C 555 497.391, 553.974 497, 552.721 497 C 551.467 497, 549.793 496.100, 549 495 C 548.207 493.900, 546.565 493, 545.351 493 C 544.136 493, 542.468 492.325, 541.643 491.500 C 540.818 490.675, 539.661 490, 539.071 490 C 538.482 490, 538 489.559, 538 489.019 C 538 488.480, 536.875 487.756, 535.500 487.411 C 534.125 487.066, 533 486.382, 533 485.892 C 533 485.401, 532.100 485, 531 485 C 529.900 485, 529 484.550, 529 484 C 529 483.450, 528.325 483, 527.500 483 C 526.675 483, 526 482.599, 526 482.108 C 526 481.618, 524.875 480.934, 523.500 480.589 C 522.125 480.244, 521 479.520, 521 478.981 C 521 478.441, 520.325 478, 519.500 478 C 518.675 478, 518 477.550, 518 477 C 518 476.450, 517.212 475.993, 516.250 475.985 C 512.483 475.952, 511.387 474.266, 513.782 472.189 C 515.002 471.131, 516 469.306, 516 468.133 C 516 466.960, 516.441 466, 516.981 466 C 517.520 466, 518.244 464.875, 518.589 463.500 C 518.934 462.125, 519.618 461, 520.108 461 C 520.599 461, 521 460.325, 521 459.500 C 521 458.675, 521.450 458, 522 458 C 522.550 458, 523 457.086, 523 455.969 C 523 454.851, 523.675 453.678, 524.500 453.362 C 525.355 453.034, 526 451.542, 526 449.893 C 526 448.302, 526.401 447, 526.892 447 C 527.382 447, 528.066 445.875, 528.411 444.500 C 528.756 443.125, 529.480 442, 530.019 442 C 530.559 442, 531 441.325, 531 440.500 C 531 439.675, 531.450 439, 532 439 C 532.550 439, 533 438.148, 533 437.107 C 533 436.066, 533.675 434.955, 534.500 434.638 C 535.325 434.322, 536 433.149, 536 432.031 C 536 430.914, 536.450 430, 537 430 C 537.550 430, 538 429.325, 538 428.500 C 538 427.675, 538.441 427, 538.981 427 C 539.520 427, 540.244 425.875, 540.589 424.500 C 540.934 423.125, 541.618 422, 542.108 422 C 542.599 422, 543 421.100, 543 420 C 543 418.900, 543.450 418, 544 418 C 544.550 418, 545 417.325, 545 416.500 C 545 415.675, 545.430 415, 545.955 415 C 546.480 415, 547.205 413.425, 547.566 411.500 C 547.927 409.575, 548.623 408, 549.111 408 C 549.600 408, 550 407.325, 550 406.500 C 550 405.675, 550.441 405, 550.981 405 C 551.520 405, 552.244 403.875, 552.589 402.500 C 552.934 401.125, 553.618 400, 554.108 400 C 554.599 400, 555 399.068, 555 397.929 C 555 396.789, 555.563 395.230, 556.250 394.463 C 559.442 390.904, 560 389.948, 560 388.042 C 560 386.919, 560.450 386, 561 386 C 561.550 386, 562 385.518, 562 384.929 C 562 384.339, 562.675 383.182, 563.500 382.357 C 564.325 381.532, 565 379.989, 565 378.929 C 565 377.868, 565.450 377, 566 377 C 566.550 377, 567 376.325, 567 375.500 C 567 374.675, 567.441 374, 567.981 374 C 568.520 374, 569.244 372.875, 569.589 371.500 C 569.934 370.125, 570.618 369, 571.108 369 C 571.599 369, 572 368.325, 572 367.500 C 572 366.675, 572.450 366, 573 366 C 573.550 366, 574 365.264, 574 364.365 C 574 363.465, 575.125 361.687, 576.500 360.412 C 577.875 359.138, 579 357.367, 579 356.476 C 579 355.586, 579.675 354.182, 580.500 353.357 C 581.325 352.532, 582 350.989, 582 349.929 C 582 348.868, 582.450 348, 583 348 C 583.550 348, 584 347.325, 584 346.500 C 584 345.675, 584.441 345, 584.981 345 C 585.520 345, 586.244 343.875, 586.589 342.500 C 586.934 341.125, 587.618 340, 588.108 340 C 588.599 340, 589 338.875, 589 337.500 C 589 336.125, 589.450 335, 590 335 C 590.550 335, 591 334.148, 591 333.107 C 591 332.066, 591.675 330.955, 592.500 330.638 C 593.325 330.322, 594 329.149, 594 328.031 C 594 326.914, 594.450 326, 595 326 C 595.550 326, 596 325.325, 596 324.500 C 596 323.675, 596.441 323, 596.981 323 C 597.520 323, 598.244 321.875, 598.589 320.500 C 598.934 319.125, 599.618 318, 600.108 318 C 600.599 318, 601 317.130, 601 316.067 C 601 315.004, 601.899 313.849, 602.998 313.501 C 604.096 313.152, 605.270 311.772, 605.606 310.433 C 605.942 309.095, 606.618 308, 607.108 308 C 607.599 308, 608 307.264, 608 306.365 C 608 305.465, 609.125 303.687, 610.500 302.412 C 611.875 301.138, 613 299.447, 613 298.655 C 613 297.862, 613.675 296.955, 614.500 296.638 C 615.325 296.322, 616 295.149, 616 294.031 C 616 292.914, 616.450 292, 617 292 C 617.550 292, 618 291.530, 618 290.955 C 618 290.380, 619.125 288.784, 620.500 287.409 C 623.341 284.568, 624.003 279, 621.500 279 C 620.675 279, 620 278.550, 620 278 C 620 277.450, 618.875 277, 617.500 277 C 616.125 277, 615 277.450, 615 278" stroke="none" fill="#f9f9f9" fill-rule="evenodd"/></svg>
